<svg id="Layer_1" data-name="Layer 1" xmlns="http://www.w3.org/2000/svg" viewBox="0 0 279.84 77.09"><title>OpenAI logo - Brandlogos.net</title><path d="M204.09,254.52c0,12.61,8.09,21.39,19.31,21.39s19.31-8.79,19.31-21.39-8.09-21.39-19.31-21.39S204.09,241.91,204.09,254.52Zm31.22,0c0,9-4.91,14.86-11.91,14.86s-11.91-5.84-11.91-14.86,4.91-14.86,11.91-14.86S235.31,245.5,235.31,254.52Z" transform="translate(-116.08 -217.45)"/><path d="M263.56,275.91c8.5,0,13.36-7.17,13.36-15.79s-4.86-15.79-13.36-15.79a11,11,0,0,0-8.73,3.82v-3.24h-6.94v40.76h6.94V272.09a11,11,0,0,0,8.73,3.82Zm-8.9-16.65c0-5.72,3.24-8.85,7.52-8.85,5,0,7.75,3.93,7.75,9.71s-2.72,9.71-7.75,9.71c-4.28,0-7.52-3.18-7.52-8.79Z" transform="translate(-116.08 -217.45)"/><path d="M295.69,275.91c6.07,0,10.87-3.18,13-8.5l-6-2.26c-.93,3.12-3.64,4.86-7.05,4.86-4.45,0-7.57-3.18-8.09-8.38h21.28v-2.31c0-8.33-4.68-15-13.47-15s-14.46,6.88-14.46,15.79c0,9.37,6.07,15.79,14.74,15.79Zm-.35-25.73c4.39,0,6.48,2.89,6.53,6.24H287.94c1-4.11,3.82-6.24,7.4-6.24Z" transform="translate(-116.08 -217.45)"/><path d="M314.08,275.27H321V257.47a6.29,6.29,0,0,1,6.3-6.65c3.82,0,5.32,2.72,5.32,6.48v18h6.94v-20c0-6.53-3.82-10.93-10.18-10.93a10.71,10.71,0,0,0-8.38,3.82v-3.24h-6.94Z" transform="translate(-116.08 -217.45)"/><path d="M359.9,233.76l-15.73,41.52h7.34l3.53-9.48H373l3.58,9.48H384l-15.73-41.52Zm4,8.21,6.59,17.35H357.47Z" transform="translate(-116.08 -217.45)"/><path d="M395.92,233.88h-7.4V275.4h7.4Z" transform="translate(-116.08 -217.45)"/><path d="M187.13,249a19.2,19.2,0,0,0-1.65-15.78,19.42,19.42,0,0,0-20.92-9.32,19.21,19.21,0,0,0-14.49-6.46,19.43,19.43,0,0,0-18.53,13.45,19.21,19.21,0,0,0-12.84,9.32A19.43,19.43,0,0,0,121.09,263a19.2,19.2,0,0,0,1.65,15.78,19.42,19.42,0,0,0,20.92,9.32,19.2,19.2,0,0,0,14.49,6.46,19.43,19.43,0,0,0,18.54-13.46,19.21,19.21,0,0,0,12.84-9.32A19.43,19.43,0,0,0,187.13,249Zm-29,40.5a14.4,14.4,0,0,1-9.25-3.34l.46-.26L164.71,277a2.5,2.5,0,0,0,1.26-2.19V253.21l6.49,3.75a.23.23,0,0,1,.13.18v17.92a14.47,14.47,0,0,1-14.43,14.45Zm-31-13.26a14.39,14.39,0,0,1-1.72-9.68l.46.27,15.35,8.87a2.5,2.5,0,0,0,2.52,0l18.74-10.82v7.49a.24.24,0,0,1-.09.2l-15.52,9a14.46,14.46,0,0,1-19.74-5.29Zm-4-33.51a14.4,14.4,0,0,1,7.52-6.33c0,.13,0,.37,0,.53v17.73a2.5,2.5,0,0,0,1.26,2.18l18.74,10.82-6.49,3.75a.23.23,0,0,1-.22,0l-15.52-9a14.46,14.46,0,0,1-5.29-19.73Zm53.31,12.41-18.74-10.82,6.49-3.74a.23.23,0,0,1,.22,0l15.52,9a14.45,14.45,0,0,1-2.23,26.07V257.33a2.49,2.49,0,0,0-1.25-2.18Zm6.46-9.72-.46-.27L167,236.29a2.5,2.5,0,0,0-2.52,0l-18.74,10.82v-7.49a.24.24,0,0,1,.09-.2l15.52-9a14.45,14.45,0,0,1,21.46,15Zm-40.6,13.35L135.75,255a.23.23,0,0,1-.13-.18V236.93a14.45,14.45,0,0,1,23.69-11.1l-.46.26L143.51,235a2.49,2.49,0,0,0-1.26,2.18v21.63Zm3.52-7.6,8.35-4.82,8.35,4.82v9.64l-8.35,4.82-8.35-4.82Z" transform="translate(-116.08 -217.45)"/></svg>