<?xml version="1.0" encoding="UTF-8"?>
<svg id="Layer_1" xmlns="http://www.w3.org/2000/svg" version="1.1" viewBox="0 0 241 44">
  <!-- Generator: Adobe Illustrator 29.0.1, SVG Export Plug-In . SVG Version: 2.1.0 Build 192)  -->
  <defs>
    <style>
      .st0 {
        fill: #4d6bfe;
      }
    </style>
  </defs>
  <path id="path" class="st0" d="M57.2,3.6c-.6-.3-.9.3-1.2.6-.1,0-.2.2-.3.3-.9,1-1.9,1.6-3.3,1.5-2-.1-3.7.5-5.2,2.1-.3-1.9-1.4-3.1-3-3.8-.9-.4-1.7-.8-2.3-1.6-.4-.6-.5-1.3-.7-1.9-.1-.4-.3-.8-.7-.9-.5,0-.7.3-.9.7-.8,1.4-1,3-1,4.5,0,3.5,1.5,6.3,4.4,8.3.3.2.4.4.3.8-.2.7-.4,1.4-.6,2-.1.4-.3.5-.8.3-1.6-.7-3-1.7-4.2-2.9-2.1-2-3.9-4.3-6.3-6-.5-.4-1.1-.8-1.7-1.2-2.4-2.3.3-4.3.9-4.5.6-.2.2-1.1-1.9-1.1-2.1,0-4,.7-6.5,1.7-.4.1-.7.2-1.1.3-2.2-.4-4.5-.5-7-.2-4.5.5-8.2,2.7-10.8,6.4C.2,13.8-.6,18.9.4,24.2c1,5.6,3.8,10.2,8.1,13.9,4.5,3.8,9.6,5.6,15.5,5.3,3.6-.2,7.6-.7,12-4.6,1.1.6,2.3.8,4.3,1,1.5.1,3,0,4.1-.3,1.8-.4,1.7-2,1-2.4-5.2-2.5-4-1.5-5.1-2.3,2.6-3.2,6.6-6.5,8.2-17.2.1-.9,0-1.4,0-2.1,0-.4,0-.6.5-.6,1.3-.2,2.6-.5,3.7-1.2,3.4-1.9,4.7-4.9,5-8.6,0-.6,0-1.1-.6-1.4ZM27.9,36.8c-5-4-7.5-5.4-8.5-5.3-.9,0-.8,1.1-.6,1.9.2.7.5,1.2.9,1.8.3.4.5,1-.3,1.5-1.6,1-4.4-.4-4.6-.4-3.3-2-6-4.6-8-8.1-1.9-3.4-2.9-7.1-3.1-11,0-1,.2-1.3,1.1-1.5,1.2-.2,2.5-.3,3.7,0,5.1.8,9.5,3.1,13.2,6.8,2.1,2.1,3.7,4.6,5.3,7.1,1.7,2.6,3.6,5.1,6,7.2.8.7,1.5,1.3,2.1,1.7-1.9.2-5.2.3-7.4-1.5ZM30.3,21c0-.4.3-.8.7-.8s.2,0,.3,0c.1,0,.2.1.3.2.1.1.2.3.2.5,0,.4-.3.8-.8.8s-.7-.3-.7-.8ZM37.8,24.9c-.5.2-1,.4-1.4.4-.7,0-1.5-.3-1.9-.6-.7-.6-1.1-.9-1.3-1.9,0-.4,0-1.1,0-1.4.2-.8,0-1.3-.6-1.8-.5-.4-1-.5-1.7-.5s-.5-.1-.6-.2c-.3-.1-.5-.5-.3-.9,0-.1.4-.4.5-.5.8-.5,1.8-.3,2.8,0,.8.4,1.5,1,2.4,1.9,1,1.1,1.1,1.4,1.6,2.2.4.6.8,1.3,1.1,2.1.2.5,0,.9-.6,1.1Z"/>
  <path id="path1" data-name="path" class="st0" d="M143.3,34.2h-2.5v-3.9h2.5c1.5,0,3.1-.4,4.1-1.5,1-1.1,1.4-2.7,1.4-4.4s-.4-3.3-1.4-4.3c-1-1.1-2.6-1.4-4.1-1.4s-3.1.4-4.1,1.4c-1,1.1-1.4,2.7-1.4,4.3v15.9h-4.4V14.9h4.4v1.6h.8c0,0,.2-.2.3-.3,1.1-1,2.8-1.4,4.4-1.4,2.6,0,5.2.6,6.8,2.4,1.7,1.8,2.3,4.5,2.3,7.2s-.6,5.5-2.3,7.2c-1.7,1.8-4.3,2.4-6.8,2.4Z"/>
  <path id="path2" data-name="path" class="st0" d="M76.8,15.6h2.5v3.9h-2.5c-1.5,0-3.1.4-4.1,1.5-1,1.1-1.4,2.7-1.4,4.3s.4,3.3,1.4,4.3,2.6,1.5,4.1,1.5,3.1-.4,4.1-1.5c1-1.1,1.4-2.7,1.4-4.3v-15.9h4.4v25.5h-4.4v-1.6h-.8c0,.1-.2.2-.3.3-1.1,1-2.8,1.4-4.4,1.4-2.6,0-5.2-.6-6.8-2.4-1.7-1.8-2.3-4.5-2.3-7.2s.6-5.5,2.3-7.2c1.7-1.8,4.3-2.4,6.8-2.4Z"/>
  <path id="path3" data-name="path" class="st0" d="M108.6,24.9v1.5h-11.6v-3.1h7.7c-.2-1.1-.6-2.2-1.3-2.9-1.1-1.1-2.7-1.5-4.3-1.5s-3.2.4-4.3,1.5c-1,1.1-1.4,2.8-1.4,4.5s.4,3.4,1.4,4.5c1.1,1.1,2.7,1.5,4.3,1.5s3.2-.4,4.3-1.5c.2-.2.3-.3.4-.5h4.3c-.4,1.3-1,2.6-1.9,3.5-1.8,1.8-4.4,2.5-7.1,2.5s-5.4-.7-7.1-2.5c-1.8-1.9-2.4-4.7-2.4-7.5s.6-5.6,2.4-7.5c1.8-1.8,4.4-2.5,7.1-2.5s5.4.7,7.1,2.5c1.8,1.9,2.4,4.7,2.4,7.5Z"/>
  <path id="path4" data-name="path" class="st0" d="M130.5,24.9v1.5h-11.6v-3.1h7.7c-.2-1.1-.6-2.2-1.3-2.9-1.1-1.1-2.7-1.5-4.3-1.5s-3.2.4-4.3,1.5c-1.1,1.1-1.4,2.8-1.4,4.5s.4,3.4,1.4,4.5,2.7,1.5,4.3,1.5,3.2-.4,4.3-1.5c.2-.2.3-.3.4-.5h4.3c-.4,1.3-1,2.6-1.9,3.5-1.8,1.8-4.4,2.5-7.1,2.5s-5.4-.7-7.1-2.5c-1.8-1.9-2.4-4.7-2.4-7.5s.6-5.6,2.4-7.5c1.8-1.8,4.4-2.5,7.1-2.5s5.4.7,7.1,2.5c1.8,1.9,2.4,4.7,2.4,7.5Z"/>
  <path id="path5" data-name="path" class="st0" d="M164.9,34.9c2.7,0,5.4-.4,7.1-1.5,1.8-1.1,2.4-2.8,2.4-4.4s-.6-3.3-2.4-4.4c-1.8-1.1-4.4-1.5-7.1-1.5h0c-1.1,0-2.3-.2-3-.6-.8-.4-1-1.1-1-1.7s.3-1.3,1-1.7c.7-.4,1.9-.6,3-.6s2.3.1,3,.6c.8.4,1,1.1,1,1.7h4.5c0-1.7-.6-3.3-2.2-4.4-1.6-1.1-4-1.5-6.4-1.5s-4.8.4-6.4,1.5c-1.6,1.1-2.2,2.8-2.2,4.4s.6,3.3,2.2,4.4c1.6,1.1,4,1.5,6.4,1.5s2.6.2,3.5.6c.8.4,1.1,1.1,1.1,1.7s-.3,1.3-1.1,1.7-2.1.6-3.4.6-2.5-.2-3.4-.6c-.8-.4-1.1-1.1-1.1-1.7h-5.1c0,1.7.6,3.3,2.4,4.4s4.4,1.5,7.1,1.5Z"/>
  <path id="path6" data-name="path" class="st0" d="M196.3,24.9v1.5h-11.6v-3.1h7.7c-.2-1.1-.6-2.2-1.3-2.9-1.1-1.1-2.7-1.5-4.3-1.5s-3.2.4-4.3,1.5c-1.1,1.1-1.4,2.8-1.4,4.5s.4,3.4,1.4,4.5,2.7,1.5,4.3,1.5,3.2-.4,4.3-1.5c.1-.2.3-.3.4-.5h4.3c-.4,1.3-1,2.6-1.9,3.5-1.8,1.8-4.4,2.5-7.1,2.5s-5.4-.7-7.1-2.5c-1.8-1.9-2.4-4.7-2.4-7.5s.6-5.6,2.4-7.5c1.8-1.8,4.4-2.5,7.1-2.5s5.4.7,7.1,2.5c1.8,1.9,2.4,4.7,2.4,7.5Z"/>
  <path id="path7" data-name="path" class="st0" d="M218.3,24.9v1.5h-11.6v-3.1h7.7c-.2-1.1-.6-2.2-1.3-2.9-1-1.1-2.7-1.5-4.3-1.5s-3.2.4-4.3,1.5c-1.1,1.1-1.4,2.8-1.4,4.5s.4,3.4,1.4,4.5c1.1,1.1,2.7,1.5,4.3,1.5s3.2-.4,4.3-1.5c.2-.2.3-.3.4-.5h4.3c-.4,1.3-1,2.6-1.9,3.5-1.8,1.8-4.4,2.5-7.1,2.5s-5.4-.7-7.1-2.5c-1.8-1.9-2.4-4.7-2.4-7.5s.6-5.6,2.4-7.5c1.8-1.8,4.5-2.5,7.1-2.5s5.4.7,7.1,2.5c1.8,1.9,2.4,4.7,2.4,7.5Z"/>
  <rect id="rect" class="st0" x="221.2" y="8.5" width="4.4" height="26.4"/>
  <path id="polygon" class="st0" d="M233,24.3l7.2,10.6h-5.4l-7.2-10.6,7.2-8.5h5.4l-7.2,8.5Z"/>
</svg>